# xmcd
#
# Track frame offsets:
#	150
#	20070
#	42337
#	65067
#	82472
#	96732
#	116630
#	138905
#	161617
#	179052
#
# Disc length: 2576 seconds
#
# Revision: 1
# Processed by: cddbd v1.5.2PL0 Copyright (c) Steve Scherf et al.
# Submitted via: audiograbber 1.83.01
#
DISCID=9c0a0e0a
DTITLE=Priddis - Pro Sound 1290
DYEAR=1900
DGENRE=Country
TTITLE0=Kershaw, Sammy - Love Of My Life
TTITLE1=Cochran, Anita and Steve Wariner - What If I Said
TTITLE2=Twain, Shinia and Bryan White - From This Moment
TTITLE3=Twain, Shania - Honey I'm Home
TTITLE4=Dixie Chicks - I Can Love You Better
TTITLE5=Kershaw, Sammy w/Vocal - Love Of My Life
TTITLE6=Cochran, Anita and Steve Wariner w/Vocal - What If I Said
TTITLE7=Twain, Shinia and Bryan White w/Vocal - From This Moment
TTITLE8=Twain, Shania w/Vocal - Honey I'm Home
TTITLE9=Dixie Chicks w/Vocal - I Can Love You Better
EXTD=
EXTT0=
EXTT1=
EXTT2=
EXTT3=
EXTT4=
EXTT5=
EXTT6=
EXTT7=
EXTT8=
EXTT9=
PLAYORDER=
